
<svg width="128" height="128" viewBox="0 0 128 128" fill="none" xmlns="http://www.w3.org/2000/svg">
  <defs>
    <linearGradient id="bgGradient" x1="0%" y1="0%" x2="100%" y2="100%">
      <stop offset="0%" style="stop-color:#667eea;stop-opacity:1" />
      <stop offset="100%" style="stop-color:#764ba2;stop-opacity:1" />
    </linearGradient>
    <linearGradient id="iconGradient" x1="0%" y1="0%" x2="100%" y2="100%">
      <stop offset="0%" style="stop-color:#ff6b6b;stop-opacity:1" />
      <stop offset="100%" style="stop-color:#ee5a24;stop-opacity:1" />
    </linearGradient>
  </defs>
  
  <circle cx="64" cy="64" r="60" fill="url(#bgGradient)" stroke="#ffffff" stroke-width="2"/>
  
  <g transform="translate(32, 28)">
    <rect x="16" y="8" width="32" height="28" rx="6" fill="url(#iconGradient)"/>
    <circle cx="26" cy="18" r="3" fill="#ffffff"/>
    <circle cx="38" cy="18" r="3" fill="#ffffff"/>
    <circle cx="26" cy="18" r="1.5" fill="#333333"/>
    <circle cx="38" cy="18" r="1.5" fill="#333333"/>
    <rect x="28" y="26" width="8" height="2" rx="1" fill="#ffffff"/>
    <rect x="31" y="2" width="2" height="8" fill="url(#iconGradient)"/>
    <circle cx="32" cy="2" r="2" fill="#ffffff"/>
    <rect x="12" y="36" width="40" height="32" rx="4" fill="url(#iconGradient)"/>
    <rect x="20" y="44" width="24" height="16" rx="2" fill="#ffffff" opacity="0.3"/>
    <rect x="4" y="40" width="8" height="20" rx="4" fill="url(#iconGradient)"/>
    <rect x="52" y="40" width="8" height="20" rx="4" fill="url(#iconGradient)"/>
    <circle cx="8" cy="64" r="4" fill="#ffffff"/>
    <circle cx="56" cy="64" r="4" fill="#ffffff"/>
    <rect x="20" y="68" width="6" height="16" rx="3" fill="url(#iconGradient)"/>
    <rect x="38" y="68" width="6" height="16" rx="3" fill="url(#iconGradient)"/>
    <ellipse cx="23" cy="86" rx="5" ry="3" fill="#ffffff"/>
    <ellipse cx="41" cy="86" rx="5" ry="3" fill="#ffffff"/>
  </g>
  
  <text x="64" y="110" text-anchor="middle" fill="#ffffff" font-family="Arial, sans-serif" font-size="10" font-weight="bold">AutoVagas</text>
</svg>